<?xml version="1.0" encoding="UTF-8"?>
<svg width="12px" height="12px" viewBox="0 0 12 12" version="1.1" xmlns="http://www.w3.org/2000/svg" xmlns:xlink="http://www.w3.org/1999/xlink">
    <!-- Generator: Sketch 53.2 (72643) - https://sketchapp.com -->
    <title>消息</title>
    <desc>Created with Sketch.</desc>
    <g id="H5" stroke="none" stroke-width="1" fill="none" fill-rule="evenodd">
        <g id="消息" transform="translate(-18.000000, -130.000000)" fill-rule="nonzero">
            <g id="消息1-copy" transform="translate(8.000000, 114.000000)">
                <g id="消息" transform="translate(10.000000, 16.000000)">
                    <circle id="Oval" fill="#C31A1F" cx="6" cy="6" r="6"></circle>
                    <g id="喇叭" transform="translate(3.000000, 3.000000)" fill="#FFFFFF">
                        <path d="M3.33372205,5.60226499 C3.33372205,6.24693199 2.83976491,5.91410811 2.83976491,5.91410811 L0.700812668,4.11272321 L0.370472038,4.11272321 C0.165780139,4.11272321 0,3.94370645 0,3.73519502 L0,2.22544181 C0,2.01688856 0.165780139,1.84796378 0.370472038,1.84796378 L0.765587634,1.84796378 L2.83977326,0.0865752819 C2.83977326,0.0865752819 3.33377218,-0.248957951 3.33377218,0.401077585 L3.33377218,5.60229844 L3.33373041,5.60229844 L3.33373041,5.60225662 L3.33372205,5.60226499 Z M4.44489591,3.98682194 C5.06232146,3.48358481 5.02112077,2.52942446 4.44489591,2.09957399 C4.21860957,1.96332868 4.07454082,2.41415991 4.07454082,2.41415991 C4.07454082,2.41415991 4.6506905,3.13760719 4.07454082,3.67231128 C3.96129741,3.81910968 4.17741724,4.1231676 4.44489591,3.98681358 L4.44489591,3.98682194 Z M4.75360869,1.03018254 C4.67128249,0.95672898 4.27006031,1.22938684 4.50668859,1.4704774 C5.73106409,2.50851896 5.75158925,3.48359317 4.50668859,4.55301807 C4.32141915,4.73124998 4.56832254,5.06685847 4.75360869,4.99331293 C6.45120733,4.20692338 6.37933168,1.76408256 4.75360869,1.03018254 Z" id="Shape"></path>
                    </g>
                </g>
            </g>
        </g>
    </g>
</svg>